<svg width="994" height="421" viewBox="0 0 994 421" fill="none" xmlns="http://www.w3.org/2000/svg">
<path d="M155.259 333.115C155.259 360.707 147.915 380.975 133.226 393.919C118.878 406.863 99.9192 413.336 76.3485 413.336H0V55.6644H76.3485C99.9192 55.6644 118.878 62.1365 133.226 75.0808C147.915 87.6845 155.259 107.612 155.259 134.863V333.115ZM86.5967 125.155C86.5967 115.276 83.1806 110.337 76.3485 110.337H68.6624V358.663H76.3485C83.1806 358.663 86.5967 353.553 86.5967 343.334V125.155Z" fill="white"/>
<path d="M315.778 413.336H247.116L244.554 336.181H230.206L227.644 413.336H159.494L192.288 55.6644H282.472L315.778 413.336ZM243.017 280.997L240.455 184.937L238.917 148.148H235.843L234.306 184.937L231.744 280.997H243.017Z" fill="white"/>
<path d="M409.821 306.545V413.336H341.158V306.545L297.604 55.6644H366.266L372.415 204.864L374.465 242.164H377.027L379.077 204.864L385.225 55.6644H453.888L409.821 306.545Z" fill="white"/>
<path d="M540.945 173.696V117.49C540.945 107.612 538.212 102.673 532.746 102.673C526.597 102.673 523.523 107.612 523.523 117.49V153.258C523.523 164.158 526.939 174.377 533.771 183.915C540.945 193.112 548.973 202.48 557.854 212.018C564.003 218.149 570.152 224.621 576.301 231.434C582.45 237.906 587.915 245.06 592.698 252.895C597.822 260.729 601.921 269.416 604.996 278.953C608.412 288.491 610.12 299.051 610.12 310.633V340.779C610.12 367.349 603.117 387.447 589.111 401.073C575.105 414.358 556.146 421 532.234 421C508.322 421 489.363 414.358 475.357 401.073C461.351 387.447 454.348 367.349 454.348 340.779V294.282H523.011V350.488C523.011 356.279 523.694 360.366 525.06 362.751C526.768 364.795 529.16 365.816 532.234 365.816C535.308 365.816 537.529 364.795 538.895 362.751C540.603 360.366 541.457 356.279 541.457 350.488V314.721C541.457 303.139 537.016 292.068 528.135 281.508C519.595 270.608 509.859 259.707 498.928 248.807C493.462 243.016 487.996 237.055 482.531 230.923C477.406 224.792 472.795 218.149 468.696 210.996C464.596 203.502 461.18 195.497 458.447 186.981C456.056 178.465 454.861 168.927 454.861 158.367V127.199C454.861 100.629 461.693 80.8717 475.357 67.9274C489.363 54.6425 508.322 48 532.234 48C556.488 48 575.447 54.6425 589.111 67.9274C602.775 81.2123 609.607 100.969 609.607 127.199V173.696H540.945Z" fill="white"/>
<path d="M694.194 413.336H625.532V55.6644H694.194V413.336Z" fill="white"/>
<path d="M864.321 333.115C864.321 360.707 856.977 380.975 842.288 393.919C827.94 406.863 808.981 413.336 785.411 413.336H709.062V55.6644H785.411C808.981 55.6644 827.94 62.1365 842.288 75.0808C856.977 87.6845 864.321 107.612 864.321 134.863V333.115ZM795.659 125.155C795.659 115.276 792.243 110.337 785.411 110.337H777.725V358.663H785.411C792.243 358.663 795.659 353.553 795.659 343.334V125.155Z" fill="white"/>
<path d="M989.388 110.337H946.859V207.93H986.314V262.603H946.859V358.663H994V413.336H878.196V55.6644H989.388V110.337Z" fill="white"/>
<path d="M6.528 3.352V32.44H10.56V37H0.864V3.352H6.528ZM19.7351 26.536V37H14.0711V26.536L9.89513 3.4H15.5591L16.7591 21.16H16.9991L17.2871 17.512L18.1991 3.4H23.8631L19.7351 26.536ZM31.5818 3.4C33.6938 3.4 35.3898 4.056 36.6698 5.368C37.9818 6.648 38.6378 8.536 38.6378 11.032V15.4C38.6378 16.84 38.3338 18.04 37.7258 19C37.1498 19.96 36.3018 20.632 35.1818 21.016V21.208C36.3018 21.56 37.1498 22.232 37.7258 23.224C38.3338 24.184 38.6378 25.384 38.6378 26.824V32.248C38.6378 33.208 38.6538 34.024 38.6858 34.696C38.7498 35.336 38.8618 36.04 39.0218 36.808V37H33.3578C33.1978 36.136 33.0858 35.368 33.0218 34.696C32.9898 34.024 32.9738 33.208 32.9738 32.248V25.336C32.9738 24.056 32.5098 23.416 31.5818 23.416H30.6218V37H24.9578V3.4H31.5818ZM30.6218 18.856H31.5818C32.5098 18.856 32.9738 18.2 32.9738 16.888V9.832C32.9738 8.552 32.5098 7.912 31.5818 7.912H30.6218V18.856ZM46.143 37H40.479V3.4H46.143V37ZM56.0351 9.112C56.0351 7.832 55.6511 7.192 54.8831 7.192C54.0831 7.192 53.6831 7.832 53.6831 9.112V31.192C53.6831 32.504 54.0831 33.16 54.8831 33.16C55.6511 33.16 56.0351 32.504 56.0351 31.192V24.568H61.6991V30.424C61.6991 32.92 61.0751 34.76 59.8271 35.944C58.5791 37.128 56.9311 37.72 54.8831 37.72C52.8351 37.72 51.1711 37.128 49.8911 35.944C48.6431 34.76 48.0191 32.92 48.0191 30.424V9.928C48.0191 7.432 48.6431 5.608 49.8911 4.456C51.1711 3.272 52.8351 2.68 54.8831 2.68C56.9311 2.68 58.5791 3.272 59.8271 4.456C61.0751 5.608 61.6991 7.432 61.6991 9.928V15.736H56.0351V9.112ZM76.2225 37H70.6065L70.2225 29.416H68.3025L67.9665 37H62.3025L65.5665 3.4H72.9585L76.2225 37ZM70.0305 24.904L69.4065 11.176H69.1665L68.4945 24.904H70.0305ZM82.8405 3.352V32.44H86.8725V37H77.1765V3.352H82.8405ZM105.53 7.912H101.45V17.944H105.242V22.504H101.45V32.44H105.962V37H95.7859V3.352H105.53V7.912ZM118.21 20.008V20.152L120.754 37H115.138L114.034 27.256L113.89 22.456H113.65L113.506 27.256L112.498 37H106.834L109.282 20.104V19.912L106.834 3.4H112.498L113.506 12.856L113.65 17.656H113.89L114.034 12.856L115.138 3.4H120.754L118.21 20.008ZM135.716 17.704C135.716 20.2 135.076 22.104 133.796 23.416C132.516 24.696 130.804 25.336 128.66 25.336H127.7V37H122.036V3.4H128.66C130.772 3.4 132.468 4.04 133.748 5.32C135.06 6.6 135.716 8.488 135.716 10.984V17.704ZM130.052 9.832C130.052 8.552 129.588 7.912 128.66 7.912H127.7V20.824H128.66C129.588 20.824 130.052 20.168 130.052 18.856V9.832ZM143.988 3.4C146.1 3.4 147.796 4.056 149.076 5.368C150.388 6.648 151.044 8.536 151.044 11.032V15.4C151.044 16.84 150.74 18.04 150.132 19C149.556 19.96 148.708 20.632 147.588 21.016V21.208C148.708 21.56 149.556 22.232 150.132 23.224C150.74 24.184 151.044 25.384 151.044 26.824V32.248C151.044 33.208 151.06 34.024 151.092 34.696C151.156 35.336 151.268 36.04 151.428 36.808V37H145.764C145.604 36.136 145.492 35.368 145.428 34.696C145.396 34.024 145.38 33.208 145.38 32.248V25.336C145.38 24.056 144.916 23.416 143.988 23.416H143.028V37H137.364V3.4H143.988ZM143.028 18.856H143.988C144.916 18.856 145.38 18.2 145.38 16.888V9.832C145.38 8.552 144.916 7.912 143.988 7.912H143.028V18.856ZM162.389 7.912H158.309V17.944H162.101V22.504H158.309V32.44H162.821V37H152.645V3.352H162.389V7.912ZM172.146 14.296V9.112C172.146 8.376 172.05 7.88 171.858 7.624C171.666 7.336 171.394 7.192 171.042 7.192C170.626 7.192 170.322 7.336 170.13 7.624C169.938 7.88 169.842 8.376 169.842 9.112V12.424C169.842 13.512 170.162 14.52 170.802 15.448C171.442 16.344 172.178 17.256 173.01 18.184C173.586 18.76 174.162 19.384 174.738 20.056C175.314 20.696 175.826 21.4 176.274 22.168C176.754 22.904 177.138 23.72 177.426 24.616C177.714 25.48 177.858 26.456 177.858 27.544V30.376C177.858 32.84 177.234 34.68 175.986 35.896C174.77 37.112 173.106 37.72 170.994 37.72C168.882 37.72 167.202 37.112 165.954 35.896C164.738 34.68 164.13 32.84 164.13 30.376V26.008H169.794V31.192C169.794 31.928 169.89 32.44 170.082 32.728C170.274 33.016 170.578 33.16 170.994 33.16C171.378 33.16 171.666 33.016 171.858 32.728C172.082 32.44 172.194 31.928 172.194 31.192V27.88C172.194 26.696 171.794 25.576 170.994 24.52C170.194 23.464 169.298 22.408 168.306 21.352C167.794 20.808 167.282 20.248 166.77 19.672C166.29 19.064 165.858 18.424 165.474 17.752C165.09 17.048 164.77 16.296 164.514 15.496C164.29 14.664 164.178 13.768 164.178 12.808V9.88C164.178 7.448 164.786 5.64 166.002 4.456C167.218 3.24 168.882 2.632 170.994 2.632C173.106 2.632 174.77 3.24 175.986 4.456C177.202 5.672 177.81 7.48 177.81 9.88V14.296H172.146ZM187.474 14.296V9.112C187.474 8.376 187.378 7.88 187.186 7.624C186.994 7.336 186.722 7.192 186.37 7.192C185.954 7.192 185.65 7.336 185.458 7.624C185.266 7.88 185.17 8.376 185.17 9.112V12.424C185.17 13.512 185.49 14.52 186.13 15.448C186.77 16.344 187.506 17.256 188.338 18.184C188.914 18.76 189.49 19.384 190.066 20.056C190.642 20.696 191.154 21.4 191.602 22.168C192.082 22.904 192.466 23.72 192.754 24.616C193.042 25.48 193.186 26.456 193.186 27.544V30.376C193.186 32.84 192.562 34.68 191.314 35.896C190.098 37.112 188.434 37.72 186.322 37.72C184.21 37.72 182.53 37.112 181.282 35.896C180.066 34.68 179.458 32.84 179.458 30.376V26.008H185.122V31.192C185.122 31.928 185.218 32.44 185.41 32.728C185.602 33.016 185.906 33.16 186.322 33.16C186.706 33.16 186.994 33.016 187.186 32.728C187.41 32.44 187.522 31.928 187.522 31.192V27.88C187.522 26.696 187.122 25.576 186.322 24.52C185.522 23.464 184.626 22.408 183.634 21.352C183.122 20.808 182.61 20.248 182.098 19.672C181.618 19.064 181.186 18.424 180.802 17.752C180.418 17.048 180.098 16.296 179.842 15.496C179.618 14.664 179.506 13.768 179.506 12.808V9.88C179.506 7.448 180.114 5.64 181.33 4.456C182.546 3.24 184.21 2.632 186.322 2.632C188.434 2.632 190.098 3.24 191.314 4.456C192.53 5.672 193.138 7.48 193.138 9.88V14.296H187.474ZM200.69 37H195.026V3.4H200.69V37ZM216.294 30.424C216.294 32.824 215.686 34.648 214.47 35.896C213.254 37.112 211.574 37.72 209.43 37.72C207.318 37.72 205.654 37.112 204.438 35.896C203.222 34.648 202.614 32.824 202.614 30.424V9.928C202.614 7.528 203.222 5.72 204.438 4.504C205.654 3.288 207.334 2.68 209.478 2.68C211.59 2.68 213.254 3.288 214.47 4.504C215.686 5.72 216.294 7.528 216.294 9.928V30.424ZM210.63 9.112C210.63 7.832 210.23 7.192 209.43 7.192C208.662 7.192 208.278 7.832 208.278 9.112V31.192C208.278 32.504 208.662 33.16 209.43 33.16C210.23 33.16 210.63 32.504 210.63 31.192V9.112ZM232.631 37H225.863L222.695 15.928L222.119 12.472L221.879 12.52L222.167 15.976L223.511 37H217.895V3.4H224.663L228.311 27.064L228.551 27.016L227.015 3.4H232.631V37ZM261.05 37H255.77L257.018 10.792L256.778 10.744L254.09 37H248.906L246.506 14.248L246.074 10.744L245.834 10.792L247.082 37H241.802V3.4H250.01L251.21 25.912L251.354 29.272H251.594L252.842 3.4H261.05V37ZM275.863 37H270.247L269.863 29.416H267.943L267.607 37H261.943L265.207 3.4H272.599L275.863 37ZM269.671 24.904L269.047 11.176H268.807L268.135 24.904H269.671ZM290.497 29.704C290.497 32.2 289.857 34.04 288.577 35.224C287.297 36.408 285.585 37 283.441 37H276.817V3.4H283.441C285.553 3.4 287.249 3.992 288.529 5.176C289.841 6.328 290.497 8.152 290.497 10.648V29.704ZM284.833 9.832C284.833 8.552 284.369 7.912 283.441 7.912H282.481V32.44H283.441C284.369 32.44 284.833 31.784 284.833 30.472V9.832ZM301.889 7.912H297.809V17.944H301.601V22.504H297.809V32.44H302.321V37H292.145V3.352H301.889V7.912ZM330.571 37H323.131L322.075 11.32H321.835L320.683 37H313.243L310.459 3.4H316.123L316.891 30.328H317.083L318.523 3.4H325.339L326.875 30.328H327.115L327.163 26.92L327.739 3.4H333.403L330.571 37ZM344.217 7.912H340.137V17.944H343.929V22.504H340.137V32.44H344.649V37H334.473V3.352H344.217V7.912ZM359.254 37H353.638L353.254 29.416H351.334L350.998 37H345.334L348.598 3.4H355.99L359.254 37ZM353.062 24.904L352.438 11.176H352.198L351.526 24.904H353.062ZM366.832 3.4C368.944 3.4 370.64 4.056 371.92 5.368C373.232 6.648 373.888 8.536 373.888 11.032V15.4C373.888 16.84 373.584 18.04 372.976 19C372.4 19.96 371.552 20.632 370.432 21.016V21.208C371.552 21.56 372.4 22.232 372.976 23.224C373.584 24.184 373.888 25.384 373.888 26.824V32.248C373.888 33.208 373.904 34.024 373.936 34.696C374 35.336 374.112 36.04 374.272 36.808V37H368.608C368.448 36.136 368.336 35.368 368.272 34.696C368.24 34.024 368.224 33.208 368.224 32.248V25.336C368.224 24.056 367.76 23.416 366.832 23.416H365.872V37H360.208V3.4H366.832ZM365.872 18.856H366.832C367.76 18.856 368.224 18.2 368.224 16.888V9.832C368.224 8.552 367.76 7.912 366.832 7.912H365.872V18.856ZM388.363 37H382.747L382.363 29.416H380.443L380.107 37H374.443L377.707 3.4H385.099L388.363 37ZM382.171 24.904L381.547 11.176H381.307L380.635 24.904H382.171ZM402.901 13.72C402.901 16.856 401.749 18.824 399.445 19.624V19.768C400.629 20.12 401.525 20.808 402.133 21.832C402.741 22.856 403.045 24.136 403.045 25.672V29.704C403.045 32.2 402.389 34.056 401.077 35.272C399.797 36.456 398.085 37.048 395.941 37.048H389.317V3.4H395.893C398.005 3.4 399.701 3.992 400.981 5.176C402.261 6.328 402.901 8.152 402.901 10.648V13.72ZM397.237 9.88C397.237 8.6 396.789 7.96 395.893 7.96H394.981V17.464H395.797C396.341 17.464 396.709 17.304 396.901 16.984C397.125 16.664 397.237 16.088 397.237 15.256V9.88ZM397.381 24.136C397.381 22.696 396.853 21.976 395.797 21.976H394.981V32.488H395.941C396.901 32.488 397.381 31.832 397.381 30.52V24.136ZM409.887 3.352V32.44H413.919V37H404.223V3.352H409.887ZM425.124 7.912H421.044V17.944H424.836V22.504H421.044V32.44H425.556V37H415.38V3.352H425.124V7.912Z" fill="white"/>
</svg>
